<svg width="1280" height="420" viewBox="0 0 1280 420" fill="none" xmlns="http://www.w3.org/2000/svg" role="img" aria-label="Product Telemetry Check project cover">
  <rect width="1280" height="420" rx="30" fill="#24111f"/>
  <path d="M0 332C168 286 293 306 420 336C560 369 699 376 853 325C1018 270 1148 277 1280 320V420H0V332Z" fill="#be185d" opacity=".16"/>
  <path d="M86 84h500" stroke="#be185d" stroke-width="10" stroke-linecap="round"/>
  <text x="86" y="176" fill="#fff1f2" font-family="Plus Jakarta Sans, ui-sans-serif, system-ui" font-size="42" font-weight="800">Product Telemetry Check</text>
  <text x="90" y="237" fill="#fbcfe8" font-family="Plus Jakarta Sans, ui-sans-serif, system-ui" font-size="24" font-weight="500">Validate product telemetry specs for event...</text>
  <rect x="90" y="288" width="275" height="46" rx="23" fill="#be185d" opacity=".20"/>
  <text x="118" y="319" fill="#fff1f2" font-family="Plus Jakarta Sans, ui-sans-serif, system-ui" font-size="18" font-weight="800" letter-spacing="1">PRODUCT ANALYTICS</text>

  <path d="M804 120h272l48 48v128H804z" fill="none" stroke="#be185d" stroke-width="12" stroke-linejoin="round"/>
  <path d="M1076 120v52h52" fill="none" stroke="#f59e0b" stroke-width="12" stroke-linejoin="round"/>
  <path d="M842 176h158M842 222h214M842 268h130" stroke="#fff1f2" stroke-width="10" stroke-linecap="round" opacity=".72"/>
</svg>
